<svg width="76" height="125" viewBox="0 0 76 125" fill="none" xmlns="http://www.w3.org/2000/svg">
<path d="M0.00269318 2.10611C-0.0559082 1.0031 0.790749 0.061421 1.89377 0.00281692C2.99678 -0.0557873 3.93845 0.790874 3.99706 1.89389L0.00269318 2.10611ZM74.9023 113.031C75.4376 113.997 75.0883 115.214 74.1221 115.749L58.3772 124.473C57.4111 125.008 56.1938 124.659 55.6585 123.693C55.1232 122.727 55.4725 121.509 56.4387 120.974L70.4341 113.22L62.6799 99.2244C62.1446 98.2582 62.4939 97.041 63.4601 96.5057C64.4263 95.9704 65.6435 96.3197 66.1788 97.2859L74.9023 113.031ZM3.99706 1.89389C4.8089 17.1738 9.3034 41.1 20.1242 63.0404C30.9427 84.9762 47.9566 104.689 73.7045 112.078L72.6012 115.922C45.3797 108.111 27.6406 87.3238 16.5368 64.8096C5.43518 42.3 0.837914 17.8262 0.00269318 2.10611L3.99706 1.89389Z" fill="#E5D9FF"/>
</svg>
